<svg width="512" height="512" viewBox="0 0 512 512" fill="none" xmlns="http://www.w3.org/2000/svg">
<defs>
<linearGradient id="croFlagVertical" x1="0" y1="0" x2="0" y2="1">
<stop offset="0%" stop-color="#FF0000"/> <stop offset="33.3%" stop-color="#FF0000"/>
<stop offset="33.3%" stop-color="#FFFFFF"/> <stop offset="66.6%" stop-color="#FFFFFF"/>
<stop offset="66.6%" stop-color="#002F6C"/> <stop offset="100%" stop-color="#002F6C"/>
</linearGradient>
</defs>

<rect width="512" height="512" rx="32" fill="white"/>

<path d="M72 64H248C354.071 64 440 149.929 440 256C440 362.071 354.071 448 248 448H72V64Z" fill="url(#croFlagVertical)"/>

<path d="M168 160H248C301.019 160 344 202.981 344 256C344 309.019 301.019 352 248 352H168V160Z" fill="white"/>

<g>
    <rect x="197" y="213" width="96" height="22" rx="5" fill="#002F6C"/>
    <circle cx="211" cy="224" r="4" fill="white"/>

    <rect x="197" y="245" width="96" height="22" rx="5" fill="#002F6C"/>
    <circle cx="211" cy="256" r="4" fill="white"/>

    <rect x="197" y="277" width="96" height="22" rx="5" fill="#002F6C"/>
    <circle cx="211" cy="288" r="4" fill="white"/>
</g>
</svg>
