<svg width="512" height="512" viewBox="0 0 512 512" fill="none" xmlns="http://www.w3.org/2000/svg">
<defs>
<linearGradient id="croFlagVertical" x1="0" y1="0" x2="0" y2="1">
<stop offset="0%" stop-color="#FF0000"/> <stop offset="33.3%" stop-color="#FF0000"/>
<stop offset="33.3%" stop-color="#FFFFFF"/> <stop offset="66.6%" stop-color="#FFFFFF"/>
<stop offset="66.6%" stop-color="#002F6C"/> <stop offset="100%" stop-color="#002F6C"/>
</linearGradient>
</defs>

<rect width="512" height="512" rx="32" fill="white"/>

<path d="M72 64H248C354.071 64 440 149.929 440 256C440 362.071 354.071 448 248 448H72V64Z" fill="url(#croFlagVertical)"/>

<path d="M168 160H248C301.019 160 344 202.981 344 256C344 309.019 301.019 352 248 352H168V160Z" fill="white"/>

<!-- Browser window glyph -->
<g>
    <rect x="196" y="202" width="120" height="108" rx="16" fill="#002F6C"/>
    <!-- toolbar dots: lijeva crvena (DOMOVINA accent), ostale bijele -->
    <circle cx="218" cy="222" r="6" fill="#FF0000"/>
    <circle cx="240" cy="222" r="6" fill="white"/>
    <circle cx="262" cy="222" r="6" fill="white"/>
    <!-- ekran / content -->
    <rect x="210" y="238" width="92" height="58" rx="6" fill="white"/>
</g>
</svg>
