<svg width="512" height="512" viewBox="0 0 512 512" fill="none" xmlns="http://www.w3.org/2000/svg">
<defs>
<linearGradient id="croFlagVertical" x1="0" y1="0" x2="0" y2="1">
<stop offset="0%" stop-color="#FF0000"/> <stop offset="33.3%" stop-color="#FF0000"/>
<stop offset="33.3%" stop-color="#FFFFFF"/> <stop offset="66.6%" stop-color="#FFFFFF"/>
<stop offset="66.6%" stop-color="#002F6C"/> <stop offset="100%" stop-color="#002F6C"/>
</linearGradient>
</defs>

<rect width="512" height="512" rx="32" fill="white"/>

<path d="M72 64H248C354.071 64 440 149.929 440 256C440 362.071 354.071 448 248 448H72V64Z" fill="url(#croFlagVertical)"/>

<path d="M168 160H248C301.019 160 344 202.981 344 256C344 309.019 301.019 352 248 352H168V160Z" fill="white"/>

<g transform="translate(245 256)">
    <!-- the round ball -->
    <circle cx="0" cy="0" r="68" fill="white" stroke="#002F6C" stroke-width="6"/>
    <!-- prediction bars inside the ball (1-X-2 outcome probabilities) -->
    <rect x="-42" y="-2" width="20" height="38" rx="6" fill="#002F6C"/>
    <rect x="-10" y="-26" width="20" height="62" rx="6" fill="#002F6C"/>
    <rect x="22" y="-14" width="20" height="50" rx="6" fill="#002F6C"/>
</g>
</svg>
